<mxfile host="app.diagrams.net" modified="2022-08-08T14:10:06.506Z" agent="5.0 (Macintosh; Intel Mac OS X 10_15_7) AppleWebKit/537.36 (KHTML, like Gecko) Chrome/103.0.0.0 Safari/537.36" etag="Ng_XgbK1GIXkOrNBnwqK" version="20.2.3" type="github">
  <diagram id="bT09MTgf_d-JuROjrVfM" name="第 1 页">
    <mxGraphModel dx="946" dy="614" grid="1" gridSize="10" guides="1" tooltips="1" connect="1" arrows="1" fold="1" page="1" pageScale="1" pageWidth="827" pageHeight="1169" background="#B0E3E6" math="0" shadow="0">
      <root>
        <mxCell id="0" />
        <mxCell id="1" parent="0" />
        <mxCell id="qEuiLzoXRlSyb0cYKq1j-3" style="edgeStyle=orthogonalEdgeStyle;curved=1;rounded=1;sketch=1;hachureGap=4;orthogonalLoop=1;jettySize=auto;html=1;exitX=1;exitY=0.5;exitDx=0;exitDy=0;fontFamily=Architects Daughter;fontSource=https%3A%2F%2Ffonts.googleapis.com%2Fcss%3Ffamily%3DArchitects%2BDaughter;fontSize=16;endArrow=open;startSize=14;endSize=14;sourcePerimeterSpacing=8;targetPerimeterSpacing=8;" edge="1" parent="1" source="qEuiLzoXRlSyb0cYKq1j-1" target="qEuiLzoXRlSyb0cYKq1j-2">
          <mxGeometry relative="1" as="geometry" />
        </mxCell>
        <mxCell id="qEuiLzoXRlSyb0cYKq1j-1" value="Data" style="rounded=0;whiteSpace=wrap;html=1;sketch=1;hachureGap=4;fontFamily=Architects Daughter;fontSource=https%3A%2F%2Ffonts.googleapis.com%2Fcss%3Ffamily%3DArchitects%2BDaughter;fontSize=20;fillColor=#B266FF;fillStyle=solid;" vertex="1" parent="1">
          <mxGeometry x="50" y="210" width="80" height="50" as="geometry" />
        </mxCell>
        <mxCell id="qEuiLzoXRlSyb0cYKq1j-5" style="edgeStyle=orthogonalEdgeStyle;curved=1;rounded=1;sketch=1;hachureGap=4;orthogonalLoop=1;jettySize=auto;html=1;entryX=0;entryY=0.5;entryDx=0;entryDy=0;fontFamily=Architects Daughter;fontSource=https%3A%2F%2Ffonts.googleapis.com%2Fcss%3Ffamily%3DArchitects%2BDaughter;fontSize=16;endArrow=open;startSize=14;endSize=14;sourcePerimeterSpacing=8;targetPerimeterSpacing=8;" edge="1" parent="1" source="qEuiLzoXRlSyb0cYKq1j-2" target="qEuiLzoXRlSyb0cYKq1j-4">
          <mxGeometry relative="1" as="geometry" />
        </mxCell>
        <mxCell id="qEuiLzoXRlSyb0cYKq1j-2" value="Observer" style="rounded=0;whiteSpace=wrap;html=1;sketch=1;hachureGap=4;fontFamily=Architects Daughter;fontSource=https%3A%2F%2Ffonts.googleapis.com%2Fcss%3Ffamily%3DArchitects%2BDaughter;fontSize=20;" vertex="1" parent="1">
          <mxGeometry x="180" y="210" width="110" height="50" as="geometry" />
        </mxCell>
        <mxCell id="qEuiLzoXRlSyb0cYKq1j-4" value="" style="ellipse;whiteSpace=wrap;html=1;aspect=fixed;rounded=1;sketch=1;hachureGap=4;fontFamily=Architects Daughter;fontSource=https%3A%2F%2Ffonts.googleapis.com%2Fcss%3Ffamily%3DArchitects%2BDaughter;fontSize=20;fillColor=#B266FF;fillStyle=solid;" vertex="1" parent="1">
          <mxGeometry x="330" y="165" width="140" height="140" as="geometry" />
        </mxCell>
        <mxCell id="qEuiLzoXRlSyb0cYKq1j-6" value="Data" style="text;html=1;strokeColor=none;fillColor=none;align=center;verticalAlign=middle;whiteSpace=wrap;rounded=0;sketch=1;hachureGap=4;fontFamily=Architects Daughter;fontSource=https%3A%2F%2Ffonts.googleapis.com%2Fcss%3Ffamily%3DArchitects%2BDaughter;fontSize=20;" vertex="1" parent="1">
          <mxGeometry x="370" y="180" width="60" height="30" as="geometry" />
        </mxCell>
        <mxCell id="qEuiLzoXRlSyb0cYKq1j-7" value="getter" style="rounded=1;whiteSpace=wrap;html=1;sketch=1;hachureGap=4;fontFamily=Architects Daughter;fontSource=https%3A%2F%2Ffonts.googleapis.com%2Fcss%3Ffamily%3DArchitects%2BDaughter;fontSize=20;fillColor=#d5e8d4;strokeColor=#82b366;fillStyle=solid;" vertex="1" parent="1">
          <mxGeometry x="352.5" y="210" width="95" height="30" as="geometry" />
        </mxCell>
        <mxCell id="qEuiLzoXRlSyb0cYKq1j-8" value="setter" style="rounded=1;whiteSpace=wrap;html=1;sketch=1;hachureGap=4;fontFamily=Architects Daughter;fontSource=https%3A%2F%2Ffonts.googleapis.com%2Fcss%3Ffamily%3DArchitects%2BDaughter;fontSize=20;fillColor=#d5e8d4;strokeColor=#82b366;fillStyle=solid;" vertex="1" parent="1">
          <mxGeometry x="352.5" y="250" width="95" height="30" as="geometry" />
        </mxCell>
        <mxCell id="qEuiLzoXRlSyb0cYKq1j-9" value="watcher" style="ellipse;whiteSpace=wrap;html=1;aspect=fixed;rounded=1;sketch=1;hachureGap=4;fontFamily=Architects Daughter;fontSource=https%3A%2F%2Ffonts.googleapis.com%2Fcss%3Ffamily%3DArchitects%2BDaughter;fontSize=20;fillColor=#FFFF66;fillStyle=solid;" vertex="1" parent="1">
          <mxGeometry x="650" y="187.5" width="95" height="95" as="geometry" />
        </mxCell>
        <mxCell id="qEuiLzoXRlSyb0cYKq1j-10" value="Dep" style="ellipse;whiteSpace=wrap;html=1;aspect=fixed;rounded=1;sketch=1;hachureGap=4;fontFamily=Architects Daughter;fontSource=https%3A%2F%2Ffonts.googleapis.com%2Fcss%3Ffamily%3DArchitects%2BDaughter;fontSize=20;fillColor=#FF99CC;strokeColor=default;fillStyle=solid;" vertex="1" parent="1">
          <mxGeometry x="530" y="410" width="95" height="95" as="geometry" />
        </mxCell>
        <mxCell id="qEuiLzoXRlSyb0cYKq1j-11" value="外界" style="ellipse;whiteSpace=wrap;html=1;aspect=fixed;rounded=1;sketch=1;hachureGap=4;fontFamily=Architects Daughter;fontSource=https%3A%2F%2Ffonts.googleapis.com%2Fcss%3Ffamily%3DArchitects%2BDaughter;fontSize=20;" vertex="1" parent="1">
          <mxGeometry x="500" y="10" width="95" height="95" as="geometry" />
        </mxCell>
        <mxCell id="qEuiLzoXRlSyb0cYKq1j-12" value="" style="shape=link;html=1;rounded=1;sketch=1;hachureGap=4;fontFamily=Architects Daughter;fontSource=https%3A%2F%2Ffonts.googleapis.com%2Fcss%3Ffamily%3DArchitects%2BDaughter;fontSize=16;endArrow=open;startSize=14;endSize=14;sourcePerimeterSpacing=8;targetPerimeterSpacing=8;curved=1;width=-2;" edge="1" parent="1">
          <mxGeometry width="100" relative="1" as="geometry">
            <mxPoint x="480" y="240" as="sourcePoint" />
            <mxPoint x="640" y="240" as="targetPoint" />
          </mxGeometry>
        </mxCell>
        <mxCell id="qEuiLzoXRlSyb0cYKq1j-13" value="" style="endArrow=classic;html=1;rounded=1;sketch=1;hachureGap=4;fontFamily=Architects Daughter;fontSource=https%3A%2F%2Ffonts.googleapis.com%2Fcss%3Ffamily%3DArchitects%2BDaughter;fontSize=16;startSize=14;endSize=14;sourcePerimeterSpacing=8;targetPerimeterSpacing=8;curved=1;exitX=0.5;exitY=1;exitDx=0;exitDy=0;" edge="1" parent="1" source="qEuiLzoXRlSyb0cYKq1j-4">
          <mxGeometry width="50" height="50" relative="1" as="geometry">
            <mxPoint x="370" y="340" as="sourcePoint" />
            <mxPoint x="510" y="470" as="targetPoint" />
            <Array as="points">
              <mxPoint x="410" y="450" />
            </Array>
          </mxGeometry>
        </mxCell>
        <mxCell id="qEuiLzoXRlSyb0cYKq1j-15" value="" style="endArrow=classic;html=1;rounded=1;sketch=1;hachureGap=4;fontFamily=Architects Daughter;fontSource=https%3A%2F%2Ffonts.googleapis.com%2Fcss%3Ffamily%3DArchitects%2BDaughter;fontSize=16;startSize=14;endSize=14;sourcePerimeterSpacing=8;targetPerimeterSpacing=8;curved=1;exitX=1;exitY=1;exitDx=0;exitDy=0;entryX=0.179;entryY=0.084;entryDx=0;entryDy=0;entryPerimeter=0;" edge="1" parent="1" source="qEuiLzoXRlSyb0cYKq1j-4" target="qEuiLzoXRlSyb0cYKq1j-10">
          <mxGeometry width="50" height="50" relative="1" as="geometry">
            <mxPoint x="370" y="340" as="sourcePoint" />
            <mxPoint x="550" y="400" as="targetPoint" />
            <Array as="points">
              <mxPoint x="530" y="320" />
            </Array>
          </mxGeometry>
        </mxCell>
        <mxCell id="qEuiLzoXRlSyb0cYKq1j-16" value="通知依赖" style="text;html=1;strokeColor=none;fillColor=none;align=center;verticalAlign=middle;whiteSpace=wrap;rounded=0;sketch=1;hachureGap=4;fontFamily=Architects Daughter;fontSource=https%3A%2F%2Ffonts.googleapis.com%2Fcss%3Ffamily%3DArchitects%2BDaughter;fontSize=20;" vertex="1" parent="1">
          <mxGeometry x="350" y="400" width="60" height="30" as="geometry" />
        </mxCell>
        <mxCell id="qEuiLzoXRlSyb0cYKq1j-17" value="收集依赖" style="text;html=1;strokeColor=none;fillColor=none;align=center;verticalAlign=middle;whiteSpace=wrap;rounded=0;sketch=1;hachureGap=4;fontFamily=Architects Daughter;fontSource=https%3A%2F%2Ffonts.googleapis.com%2Fcss%3Ffamily%3DArchitects%2BDaughter;fontSize=20;" vertex="1" parent="1">
          <mxGeometry x="517.5" y="320" width="60" height="30" as="geometry" />
        </mxCell>
        <mxCell id="qEuiLzoXRlSyb0cYKq1j-18" value="" style="endArrow=classic;html=1;rounded=1;sketch=1;hachureGap=4;fontFamily=Architects Daughter;fontSource=https%3A%2F%2Ffonts.googleapis.com%2Fcss%3Ffamily%3DArchitects%2BDaughter;fontSize=16;startSize=14;endSize=14;sourcePerimeterSpacing=8;targetPerimeterSpacing=8;curved=1;" edge="1" parent="1">
          <mxGeometry width="50" height="50" relative="1" as="geometry">
            <mxPoint x="630" y="460" as="sourcePoint" />
            <mxPoint x="710" y="290" as="targetPoint" />
            <Array as="points">
              <mxPoint x="700" y="390" />
            </Array>
          </mxGeometry>
        </mxCell>
        <mxCell id="qEuiLzoXRlSyb0cYKq1j-19" value="通知watcher" style="text;html=1;strokeColor=none;fillColor=none;align=center;verticalAlign=middle;whiteSpace=wrap;rounded=0;sketch=1;hachureGap=4;fontFamily=Architects Daughter;fontSource=https%3A%2F%2Ffonts.googleapis.com%2Fcss%3Ffamily%3DArchitects%2BDaughter;fontSize=20;" vertex="1" parent="1">
          <mxGeometry x="685" y="400" width="60" height="30" as="geometry" />
        </mxCell>
        <mxCell id="qEuiLzoXRlSyb0cYKq1j-22" value="" style="endArrow=classic;html=1;rounded=1;sketch=1;hachureGap=4;fontFamily=Architects Daughter;fontSource=https%3A%2F%2Ffonts.googleapis.com%2Fcss%3Ffamily%3DArchitects%2BDaughter;fontSize=16;startSize=14;endSize=14;sourcePerimeterSpacing=8;targetPerimeterSpacing=8;curved=1;exitX=0.284;exitY=0.016;exitDx=0;exitDy=0;exitPerimeter=0;entryX=0.968;entryY=0.811;entryDx=0;entryDy=0;entryPerimeter=0;" edge="1" parent="1" source="qEuiLzoXRlSyb0cYKq1j-9" target="qEuiLzoXRlSyb0cYKq1j-11">
          <mxGeometry width="50" height="50" relative="1" as="geometry">
            <mxPoint x="590" y="187.5" as="sourcePoint" />
            <mxPoint x="640" y="137.5" as="targetPoint" />
            <Array as="points">
              <mxPoint x="677" y="120" />
            </Array>
          </mxGeometry>
        </mxCell>
        <mxCell id="qEuiLzoXRlSyb0cYKq1j-23" value="" style="endArrow=classic;html=1;rounded=1;sketch=1;hachureGap=4;fontFamily=Architects Daughter;fontSource=https%3A%2F%2Ffonts.googleapis.com%2Fcss%3Ffamily%3DArchitects%2BDaughter;fontSize=16;startSize=14;endSize=14;sourcePerimeterSpacing=8;targetPerimeterSpacing=8;curved=1;entryX=-0.032;entryY=0.342;entryDx=0;entryDy=0;entryPerimeter=0;exitX=0.611;exitY=1.032;exitDx=0;exitDy=0;exitPerimeter=0;" edge="1" parent="1" source="qEuiLzoXRlSyb0cYKq1j-11" target="qEuiLzoXRlSyb0cYKq1j-9">
          <mxGeometry width="50" height="50" relative="1" as="geometry">
            <mxPoint x="530" y="180" as="sourcePoint" />
            <mxPoint x="580" y="130" as="targetPoint" />
            <Array as="points">
              <mxPoint x="580" y="190" />
            </Array>
          </mxGeometry>
        </mxCell>
        <mxCell id="qEuiLzoXRlSyb0cYKq1j-24" value="读数据" style="text;html=1;strokeColor=none;fillColor=none;align=center;verticalAlign=middle;whiteSpace=wrap;rounded=0;sketch=1;hachureGap=4;fillStyle=solid;fontFamily=Architects Daughter;fontSource=https%3A%2F%2Ffonts.googleapis.com%2Fcss%3Ffamily%3DArchitects%2BDaughter;fontSize=20;" vertex="1" parent="1">
          <mxGeometry x="500" y="157.5" width="90" height="30" as="geometry" />
        </mxCell>
        <mxCell id="qEuiLzoXRlSyb0cYKq1j-25" value="通知外界" style="text;html=1;strokeColor=none;fillColor=none;align=center;verticalAlign=middle;whiteSpace=wrap;rounded=0;sketch=1;hachureGap=4;fillStyle=solid;fontFamily=Architects Daughter;fontSource=https%3A%2F%2Ffonts.googleapis.com%2Fcss%3Ffamily%3DArchitects%2BDaughter;fontSize=20;" vertex="1" parent="1">
          <mxGeometry x="655" y="105" width="90" height="30" as="geometry" />
        </mxCell>
      </root>
    </mxGraphModel>
  </diagram>
</mxfile>
